<?xml version="1.0" standalone="no"?>
<!DOCTYPE svg PUBLIC "-//W3C//DTD SVG 20010904//EN"
 "http://www.w3.org/TR/2001/REC-SVG-20010904/DTD/svg10.dtd">
<svg version="1.0" xmlns="http://www.w3.org/2000/svg"
 width="943.000000pt" height="1280.000000pt" viewBox="0 0 943.000000 1280.000000"
 preserveAspectRatio="xMidYMid meet">
<g transform="translate(0.000000,1280.000000) scale(0.100000,-0.100000)"
fill="#000000" stroke="none">
<path d="M4430 12284 c-128 -261 -230 -477 -227 -480 3 -3 169 -1 369 5 199 6
482 13 628 16 146 3 294 8 329 11 l64 6 -419 420 c-230 230 -440 437 -465 458
l-46 39 -233 -475z"/>
<path d="M4135 12268 c-247 -254 -451 -467 -453 -473 -4 -16 279 -28 362 -16
69 9 71 12 151 156 85 152 397 775 393 786 -2 5 -205 -199 -453 -453z"/>
<path d="M3560 12531 c-63 -26 -143 -43 -163 -35 -19 7 -24 -11 -6 -22 13 -8
9 -39 -20 -166 -31 -135 -73 -201 -136 -214 -45 -9 -92 29 -134 108 -54 100
-66 115 -82 102 -8 -6 -34 -16 -59 -23 -25 -7 -66 -24 -92 -37 -54 -27 -116
-32 -124 -9 -8 20 -17 19 -29 -4 -6 -10 -28 -43 -50 -72 -40 -52 -140 -209
-165 -258 -7 -14 -16 -95 -21 -190 -8 -147 -12 -171 -34 -213 -17 -32 -25 -63
-25 -95 l1 -48 19 35 c11 19 19 53 20 76 0 29 19 79 65 175 36 73 71 134 77
134 22 0 50 -116 49 -205 l-2 -86 70 -91 c37 -50 70 -96 73 -103 2 -7 16 -10
33 -8 l30 4 -26 11 c-14 6 -48 45 -77 90 -48 74 -52 83 -52 141 0 34 7 79 14
99 8 21 20 57 26 81 12 47 26 56 102 64 81 9 78 20 78 -293 0 -152 -2 -283 -6
-293 -5 -13 0 -16 27 -16 19 0 41 5 49 10 13 8 11 14 -12 35 -27 25 -28 30
-28 117 0 74 5 103 25 154 14 35 30 87 35 116 6 28 19 61 29 72 11 12 29 42
40 69 11 26 25 47 30 47 5 0 23 23 40 50 26 42 35 50 61 50 58 0 157 65 186
123 9 16 26 71 39 121 35 138 66 201 125 261 29 30 63 56 75 59 31 8 50 48 36
75 -15 26 -50 27 -111 2z"/>
<path d="M5623 12287 c-111 -94 -202 -176 -202 -182 -1 -13 170 -185 184 -185
6 0 54 105 107 233 53 127 104 249 112 270 9 20 13 37 9 37 -5 0 -99 -78 -210
-173z"/>
<path d="M5886 12431 c-6 -8 -236 -571 -236 -576 0 -5 902 4 908 9 3 4 -5 17
-19 30 -51 51 -633 546 -640 546 -4 0 -10 -4 -13 -9z"/>
<path d="M1199 11998 l-303 -343 89 -3 c76 -2 103 1 175 25 l85 28 265 -3
c282 -3 550 6 550 17 0 9 -538 615 -549 619 -5 2 -145 -151 -312 -340z"/>
<path d="M2362 11212 c-42 -65 -41 -74 6 -70 32 3 37 7 40 29 2 15 -1 41 -5
59 l-8 32 -33 -50z"/>
<path d="M4130 10910 c0 -11 5 -20 10 -20 6 0 10 9 10 20 0 11 -4 20 -10 20
-5 0 -10 -9 -10 -20z"/>
<path d="M4127 10807 c-3 -8 -1 -20 4 -28 11 -19 34 3 26 25 -8 20 -23 21 -30
3z"/>
<path d="M4127 10682 c-21 -23 -21 -36 -2 -52 18 -15 45 2 45 30 0 30 -25 43
-43 22z"/>
<path d="M4127 10575 c-8 -20 3 -47 17 -42 6 2 11 14 11 27 0 27 -20 38 -28
15z"/>
<path d="M4100 10455 c-23 -23 -86 -76 -141 -116 -54 -40 -97 -74 -95 -76 1
-2 47 4 102 12 140 22 316 30 399 17 38 -6 71 -10 72 -8 3 3 -113 88 -263 193
l-31 22 -43 -44z"/>
<path d="M3978 10240 c-69 -5 -128 -15 -145 -24 -15 -8 -79 -55 -142 -103
-216 -167 -321 -353 -321 -573 0 -79 21 -220 33 -220 6 0 43 9 81 19 167 46
621 80 911 69 345 -14 405 -25 497 -84 15 -10 31 -15 35 -10 12 12 20 203 11
296 -11 123 -32 193 -88 286 -41 67 -66 95 -143 156 -50 41 -131 101 -180 133
l-87 58 -173 3 c-94 1 -225 -1 -289 -6z"/>
<path d="M7140 9904 c-36 -34 -50 -54 -50 -74 0 -26 3 -27 61 -34 34 -3 82 -6
105 -6 43 0 44 1 44 34 0 19 -3 42 -6 51 -6 15 -85 75 -99 75 -3 0 -28 -21
-55 -46z"/>
<path d="M1088 9799 c-40 -34 -48 -47 -48 -75 l0 -34 105 0 c105 0 105 0 105
24 0 42 -17 71 -57 99 -21 15 -43 27 -49 27 -5 -1 -30 -19 -56 -41z"/>
<path d="M7130 9702 c-27 -9 -37 -35 -39 -99 l-1 -42 33 10 c17 5 66 9 107 8
l75 -2 -3 49 c-2 27 -10 55 -18 63 -15 16 -115 24 -154 13z"/>
<path d="M1070 9593 c-24 -9 -30 -25 -30 -82 0 -53 0 -53 27 -46 15 3 63 6
105 6 l78 0 0 49 c0 64 -21 80 -105 79 -33 0 -67 -3 -75 -6z"/>
<path d="M7121 9540 c-59 -9 -77 -21 -67 -45 4 -11 12 -15 24 -10 65 25 154
28 253 8 22 -4 29 -2 29 10 0 32 -136 53 -239 37z"/>
<path d="M7140 9457 c-32 -11 -36 -16 -42 -62 -8 -57 -27 -586 -21 -597 2 -5
62 -8 134 -8 l129 0 0 48 c0 78 -21 545 -26 579 -3 24 -12 34 -36 42 -40 14
-93 13 -138 -2z"/>
<path d="M1085 9435 c-5 -2 -27 -6 -47 -10 -32 -5 -38 -10 -38 -32 0 -20 4
-24 17 -18 69 26 196 30 271 9 16 -5 22 -2 22 9 0 30 -169 61 -225 42z"/>
<path d="M1074 9346 l-30 -13 -12 -318 c-6 -174 -9 -321 -6 -326 7 -12 251
-11 259 1 6 9 -7 354 -21 556 -6 85 -8 93 -31 103 -33 15 -121 13 -159 -3z"/>
<path d="M3092 9188 l-123 -127 3 -53 3 -53 235 0 235 0 3 58 c4 80 -24 125
-140 224 l-93 78 -123 -127z"/>
<path d="M5004 9217 l-107 -103 -5 -56 -4 -57 103 0 c57 0 166 -3 242 -7 l137
-7 0 35 c0 69 -27 133 -77 180 -39 36 -162 118 -178 118 -2 0 -52 -46 -111
-103z"/>
<path d="M6433 9148 c-20 -22 -32 -46 -35 -70 l-4 -38 87 0 88 0 -9 29 c-13
45 -28 68 -59 90 -16 12 -31 21 -33 21 -2 0 -18 -15 -35 -32z"/>
<path d="M3995 9140 c-129 -9 -395 -39 -445 -49 l-35 -7 4 -70 c2 -38 5 -71 7
-73 6 -6 1275 29 1286 35 10 7 10 105 0 121 -23 37 -537 64 -817 43z"/>
<path d="M1852 9096 c-17 -19 -33 -45 -37 -58 -4 -13 -17 -34 -29 -47 l-21
-23 23 -15 c18 -13 22 -25 22 -71 0 -40 -5 -58 -17 -67 -16 -12 -16 -14 2 -41
17 -26 18 -45 12 -274 -7 -230 -8 -246 -27 -259 -24 -16 -26 -34 -5 -51 13
-10 15 -49 15 -233 0 -193 -2 -223 -17 -239 -16 -18 -16 -21 2 -50 16 -28 17
-47 11 -212 l-7 -182 27 -24 c33 -32 69 -102 90 -179 10 -34 21 -61 26 -61 5
0 6 40 2 90 -7 86 -6 92 16 115 50 53 99 18 119 -86 7 -33 9 -79 6 -100 -4
-25 -3 -39 4 -39 22 0 31 40 25 112 -6 66 -4 76 16 101 45 56 105 55 135 -3
13 -26 15 -50 9 -139 -7 -119 -4 -127 46 -116 29 6 30 9 30 63 0 86 15 129 52
148 29 15 34 15 60 0 16 -10 37 -15 48 -11 44 14 80 -23 80 -80 0 -18 5 -25
20 -25 11 0 20 4 20 9 0 20 59 71 82 71 35 0 54 -26 67 -91 10 -49 9 -67 -10
-141 l-21 -86 27 -41 c27 -39 30 -41 80 -41 l53 0 4 153 c3 83 11 167 18 185
24 63 73 63 107 -1 13 -24 18 -69 23 -179 3 -81 9 -150 13 -154 3 -4 116 -1
249 7 134 7 357 12 496 11 l252 -1 14 33 c28 67 123 72 174 10 l29 -35 289 16
c385 20 353 21 361 -16 l6 -31 161 6 c89 4 173 9 189 12 l27 6 0 141 c0 209
22 261 93 220 l32 -19 20 31 c14 20 29 30 46 30 14 0 33 6 42 13 27 23 92 25
168 7 69 -17 72 -17 82 1 18 32 55 64 74 64 22 0 68 -30 87 -55 13 -18 15 -17
48 18 29 30 42 37 75 37 21 0 43 4 49 10 14 14 122 33 150 26 17 -5 27 -18 36
-51 l13 -44 35 47 c47 63 76 64 106 5 12 -23 24 -52 27 -63 10 -38 42 -8 60
58 9 33 29 74 43 92 l27 31 -7 160 c-4 87 -9 165 -12 173 -8 20 -57 27 -146
20 l-78 -7 0 -172 c0 -121 -4 -176 -12 -188 -12 -16 -84 -18 -892 -27 -586 -7
-883 -7 -890 0 -6 6 -9 113 -7 289 l3 279 -134 71 c-73 39 -143 71 -156 71
-12 0 -39 -11 -60 -25 -20 -13 -64 -34 -97 -46 -117 -44 -192 -107 -218 -183
-13 -39 -15 -80 -10 -249 5 -167 4 -204 -8 -213 -18 -15 -1828 -35 -1846 -21
-10 7 -13 59 -13 197 0 172 2 188 19 204 23 21 18 42 -10 49 -14 4 -19 14 -20
44 0 21 -4 117 -8 213 l-9 175 24 26 c25 26 24 59 -1 59 -7 0 -17 6 -23 13 -5
6 -15 119 -22 251 -11 235 -11 238 9 260 24 26 28 56 6 56 -21 0 -22 142 -1
159 13 11 12 15 -2 31 -9 10 -30 37 -47 60 -45 62 -58 66 -93 26z"/>
<path d="M5800 9108 c-1 -7 -2 -67 -3 -133 l-2 -120 -46 1 c-43 0 -47 -2 -58
-30 -6 -17 -35 -65 -64 -106 l-52 -75 -55 -2 c-30 -1 -189 -2 -352 -2 l-298
-1 0 -28 0 -29 212 -6 c116 -4 343 -7 504 -7 l293 0 3 153 c2 83 0 156 -5 162
-5 6 -15 5 -27 -3 -11 -6 -22 -12 -26 -12 -3 0 -4 55 -3 122 3 89 0 123 -9
126 -6 2 -12 -2 -12 -10z"/>
<path d="M2530 9080 c-7 -14 -8 -26 0 -39 5 -11 10 -58 10 -105 0 -88 -12
-115 -36 -82 -12 17 -13 17 -21 -1 -9 -19 0 -1048 13 -1362 l6 -174 256 7
c141 4 257 8 259 9 1 2 5 75 9 162 4 88 10 166 13 173 4 7 32 33 62 57 66 55
98 58 160 14 81 -58 97 -78 104 -130 10 -74 -4 -85 -67 -53 -48 25 -51 25 -96
10 -26 -9 -61 -31 -79 -48 -32 -31 -33 -35 -33 -110 l0 -78 63 0 c35 0 119 3
185 7 l122 6 -1 306 c-1 168 -5 459 -8 645 l-6 340 -266 -3 c-229 -2 -267 0
-278 13 -9 11 -12 44 -9 115 3 114 13 133 52 108 23 -16 25 -24 28 -104 l3
-88 78 -3 77 -3 0 60 c0 53 4 65 31 96 37 41 52 43 84 10 31 -30 32 -47 3 -44
-29 3 -68 -9 -68 -22 0 -5 20 -9 44 -9 52 0 68 -16 60 -59 l-6 -31 86 0 86 0
0 83 c0 47 -5 88 -11 94 -8 8 -8 17 1 32 6 12 8 26 5 31 -9 15 -476 13 -512
-2 -15 -6 -36 -10 -45 -9 -21 3 -20 9 -18 -141 1 -107 0 -117 -19 -127 -11 -6
-30 -11 -44 -11 -25 0 -67 37 -67 60 0 7 -18 32 -40 56 -42 46 -41 42 -44 174
-1 24 -6 35 -16 35 -15 0 -16 -13 -4 -71 8 -39 -11 -56 -52 -45 l-29 8 0 97
c0 73 3 99 14 106 12 7 13 13 3 34 -14 31 -28 33 -42 6z m700 -706 c41 -28
101 -87 116 -116 15 -29 19 -114 5 -122 -4 -3 -23 6 -41 19 -59 44 -104 33
-182 -43 l-48 -46 0 -72 c0 -85 -6 -104 -31 -104 -35 0 -41 34 -37 203 4 189
6 194 102 257 68 45 81 47 116 24z m-485 -48 c49 -52 67 -98 59 -151 -7 -52
-27 -59 -63 -21 -12 12 -49 31 -82 41 -34 11 -64 25 -67 33 -12 32 67 132 105
132 9 0 30 -15 48 -34z m-4 -601 c46 -34 69 -80 69 -137 0 -57 -10 -65 -39
-34 -14 15 -40 27 -67 31 -46 6 -104 46 -104 71 0 21 70 94 89 94 10 0 33 -11
52 -25z"/>
<path d="M6420 9001 c-22 -6 -25 -13 -28 -58 -3 -60 -3 -60 96 -55 l72 4 0 47
c0 26 -5 52 -12 59 -13 13 -87 15 -128 3z"/>
<path d="M5687 8955 c-7 -16 8 -29 23 -20 15 9 12 35 -4 35 -8 0 -16 -7 -19
-15z"/>
<path d="M5453 8918 c-6 -8 -7 -43 -2 -93 4 -44 8 -95 8 -112 1 -18 6 -33 12
-33 6 0 9 36 8 103 -2 56 -1 111 2 121 5 23 -14 32 -28 14z"/>
<path d="M5016 8865 c-17 -13 -18 -18 -7 -41 6 -14 14 -53 18 -85 5 -48 9 -59
22 -57 13 3 16 17 16 70 0 46 5 72 16 84 33 39 32 44 -8 44 -21 0 -47 -7 -57
-15z"/>
<path d="M5197 8848 c9 -18 20 -62 23 -98 4 -51 9 -66 23 -68 13 -3 17 3 17
26 0 41 9 62 27 62 17 0 11 27 -16 75 -13 24 -25 31 -55 33 l-37 3 18 -33z"/>
<path d="M6393 8853 c-37 -5 -41 -14 -17 -34 15 -12 16 -39 9 -261 l-7 -248
102 0 101 0 -5 58 c-3 31 -8 145 -11 253 -5 169 -4 197 9 208 9 8 13 17 10 22
-5 9 -127 10 -191 2z"/>
<path d="M4897 8843 c-4 -3 -7 -42 -7 -85 0 -73 1 -78 21 -78 20 0 21 4 15 53
-3 28 -6 67 -6 85 0 30 -9 40 -23 25z"/>
<path d="M5357 8762 c-10 -10 -17 -33 -17 -50 0 -25 4 -32 20 -32 17 0 20 7
20 50 0 28 -2 50 -3 50 -2 0 -11 -8 -20 -18z"/>
<path d="M7030 8740 c0 -19 7 -20 180 -20 173 0 180 1 180 20 0 19 -7 20 -180
20 -173 0 -180 -1 -180 -20z"/>
<path d="M3587 8743 c-8 -7 -7 -524 2 -958 6 -295 6 -300 27 -303 20 -3 21 2
27 160 4 90 11 345 17 568 6 223 15 415 20 428 l10 22 485 0 c380 0 487 -3
490 -12 2 -7 8 -183 14 -391 9 -336 12 -382 28 -405 14 -23 18 -51 19 -175 0
-83 5 -152 11 -158 13 -13 23 338 23 838 l0 393 -583 0 c-321 0 -587 -3 -590
-7z"/>
<path d="M7115 8662 l-50 -17 -5 -275 -5 -275 -27 -13 c-35 -16 -36 -39 -2
-54 20 -9 38 -8 89 5 81 22 156 21 221 -1 66 -23 94 -15 94 28 0 23 -6 33 -24
40 -30 11 -31 20 -46 314 -6 121 -15 225 -21 232 -13 15 -88 34 -136 34 -21
-1 -60 -9 -88 -18z"/>
<path d="M981 8651 c-8 -5 -11 -16 -8 -25 6 -14 31 -16 187 -16 173 0 180 1
180 20 0 19 -7 20 -159 20 -88 0 -165 2 -173 5 -7 3 -19 1 -27 -4z"/>
<path d="M3963 8573 l-203 -3 0 -99 c0 -129 11 -311 19 -311 4 0 15 25 25 55
11 30 28 63 40 73 12 11 73 48 136 82 63 35 127 72 142 82 14 10 36 18 48 18
12 0 84 -32 160 -70 122 -62 142 -76 178 -123 21 -28 44 -61 50 -72 9 -15 11
28 12 178 l0 197 -202 -2 c-112 -2 -294 -4 -405 -5z"/>
<path d="M1055 8555 c-22 -8 -41 -15 -42 -15 -2 0 -4 -125 -5 -277 l-3 -278
-27 -3 c-22 -3 -28 -9 -28 -28 0 -39 38 -51 101 -31 66 22 168 22 236 0 62
-20 86 -12 91 30 2 20 -3 28 -25 39 l-28 13 -11 195 c-7 107 -12 225 -13 262
-1 61 -4 69 -27 84 -36 24 -166 29 -219 9z"/>
<path d="M5853 8498 c-8 -13 -20 -521 -22 -925 l-1 -213 36 0 37 0 -7 483 c-8
628 -13 700 -43 655z"/>
<path d="M4860 8323 c0 -119 4 -173 10 -163 13 20 13 340 0 340 -6 0 -10 -66
-10 -177z"/>
<path d="M5500 8494 c-3 -62 1 -674 6 -881 l7 -273 30 0 30 0 -4 238 -4 237
113 3 c110 3 112 3 112 26 0 30 -20 36 -125 36 -44 0 -85 4 -91 8 -7 4 -13 78
-17 206 l-5 198 26 25 c15 14 42 37 60 51 19 14 38 36 43 48 7 19 17 23 61 26
39 2 54 7 56 19 2 10 -6 19 -20 22 -44 11 -278 20 -278 11z"/>
<path d="M5001 8388 c1 -24 4 -53 7 -66 7 -22 9 -21 76 28 42 31 79 50 96 50
15 0 52 -17 85 -41 31 -22 59 -39 60 -37 2 2 5 26 7 53 l3 50 -167 3 -168 2 1
-42z"/>
<path d="M5745 8277 c-42 -65 -125 -287 -125 -336 0 -8 27 -11 88 -9 l87 3 -4
160 c-2 101 -8 169 -16 184 l-12 24 -18 -26z"/>
<path d="M6383 8273 c-46 -4 -54 -18 -25 -39 15 -11 17 -35 17 -236 l0 -223
114 -3 114 -3 -7 225 c-8 223 -8 224 15 239 13 10 19 22 16 31 -5 13 -24 16
-104 14 -54 -1 -117 -3 -140 -5z"/>
<path d="M5163 8193 c-18 -8 -55 -39 -83 -68 -52 -56 -56 -70 -44 -147 l7 -38
138 0 139 0 0 99 c0 99 0 100 -29 121 -17 11 -45 27 -63 35 -30 12 -38 12 -65
-2z"/>
<path d="M7145 7990 c-22 -4 -52 -13 -66 -18 l-27 -11 -7 -288 c-8 -315 -19
-560 -26 -582 -3 -10 14 -17 58 -26 33 -8 73 -20 88 -27 15 -8 83 -70 151
-138 68 -68 126 -122 128 -119 2 2 -7 204 -20 449 -12 245 -26 510 -30 589
l-7 143 -35 15 c-43 18 -153 25 -207 13z"/>
<path d="M1062 7876 c-29 -8 -54 -15 -56 -17 -7 -7 -19 -429 -13 -429 3 0 36
23 73 51 77 58 89 64 187 84 39 8 75 19 81 25 11 11 10 216 0 252 -12 41 -164
60 -272 34z"/>
<path d="M5010 7750 c0 -33 3 -60 6 -60 3 0 26 17 52 39 78 64 85 66 148 37
30 -14 68 -34 83 -45 l29 -21 6 31 c3 18 6 42 6 55 l0 24 -165 0 -165 0 0 -60z"/>
<path d="M5721 7590 c-47 -72 -81 -158 -84 -209 l-2 -36 73 -3 74 -3 -7 153
c-4 84 -9 155 -11 157 -1 2 -21 -25 -43 -59z"/>
<path d="M5165 7583 c-16 -9 -49 -32 -73 -51 l-43 -35 3 -81 3 -80 100 2 c55
2 119 5 143 8 l42 6 0 53 c0 29 -3 73 -6 98 -7 48 -4 46 -124 91 -8 3 -28 -2
-45 -11z"/>
<path d="M4640 7360 c0 -27 3 -30 34 -30 18 0 61 3 95 6 56 6 61 9 61 30 0 24
-2 24 -95 24 l-95 0 0 -30z"/>
<path d="M3540 7350 l0 -31 93 3 c91 3 92 3 92 28 0 25 -1 25 -92 28 l-93 3 0
-31z"/>
<path d="M4920 7355 c0 -18 5 -25 20 -25 15 0 20 7 20 25 0 18 -5 25 -20 25
-15 0 -20 -7 -20 -25z"/>
<path d="M4680 6691 l-75 -6 35 -21 c19 -12 349 -205 733 -428 l699 -406 711
2 711 3 -675 218 c-371 119 -971 314 -1334 432 -418 136 -673 214 -695 213
-19 -1 -69 -4 -110 -7z"/>
<path d="M1930 6267 c-822 -233 -1502 -426 -1510 -429 -8 -4 295 -7 675 -7
l690 -1 940 416 c517 229 942 418 944 420 10 9 -10 12 -124 18 l-120 5 -1495
-422z"/>
<path d="M3947 6263 c-42 -87 -105 -220 -141 -295 l-65 -138 38 0 38 0 107
291 c58 161 105 293 103 295 -2 2 -38 -67 -80 -153z"/>
<path d="M8402 5606 c-1 -21 -14 -40 -43 -65 -131 -114 -123 -102 -127 -179
-4 -64 -2 -71 19 -86 30 -20 88 -21 117 0 19 13 52 63 52 79 0 3 -7 5 -15 5
-9 0 -22 15 -30 32 -12 30 -11 36 11 75 21 35 24 52 21 105 -2 35 -4 50 -5 34z"/>
<path d="M5487 5531 c-11 -146 -9 -181 8 -181 12 0 15 17 14 98 0 53 -3 115
-8 137 -6 35 -8 27 -14 -54z"/>
<path d="M5460 5298 c-23 -11 -22 -12 25 -18 28 -3 60 -11 72 -18 30 -16 38
-15 22 4 -15 19 -63 44 -81 43 -7 0 -24 -5 -38 -11z"/>
<path d="M2213 5192 c-24 -42 -80 -213 -85 -257 -4 -42 27 -47 35 -6 4 17 29
81 57 143 27 62 50 118 50 125 0 7 -8 17 -18 22 -16 8 -22 4 -39 -27z"/>
<path d="M2300 5225 c0 -3 29 -37 65 -76 108 -117 185 -216 280 -359 178 -267
281 -525 304 -763 l7 -72 8 115 c9 128 -8 237 -60 394 -28 86 -143 324 -198
410 -40 63 -182 207 -269 272 -60 45 -137 90 -137 79z"/>
<path d="M5377 5182 c-26 -28 -22 -47 5 -28 16 12 47 16 109 16 92 0 99 -4 99
-52 0 -17 3 -18 15 -8 18 15 20 61 3 78 -8 8 -48 12 -113 12 -86 0 -104 -3
-118 -18z"/>
<path d="M8223 5193 c-13 -2 -23 -11 -23 -19 0 -11 9 -13 43 -7 53 9 81 9 136
-1 34 -6 42 -5 39 5 -2 7 -15 16 -29 20 -26 8 -131 9 -166 2z"/>
<path d="M8230 5127 c-28 -7 -45 -18 -45 -27 0 -12 14 -14 75 -12 41 2 86 -1
100 -6 27 -10 70 1 70 17 0 31 -126 48 -200 28z"/>
<path d="M5447 5123 c-9 -8 32 -53 49 -53 13 0 44 37 44 52 0 10 -84 11 -93 1z"/>
<path d="M1501 5053 c18 -32 71 -123 118 -203 83 -139 88 -144 126 -152 35 -8
41 -6 62 19 l23 28 -6 -32 c-11 -56 20 -39 66 36 23 39 48 75 56 82 26 21 120
-47 257 -186 116 -118 139 -147 245 -317 64 -103 118 -185 120 -183 7 7 -76
174 -117 233 -90 133 -204 264 -325 373 -70 62 -141 123 -158 133 l-31 20 -28
-35 c-18 -21 -32 -30 -36 -23 -12 16 -156 129 -225 175 -64 44 -149 89 -168
89 -6 0 3 -25 21 -57z"/>
<path d="M2309 5079 c-13 -25 -79 -201 -79 -211 0 -5 6 -8 13 -8 16 0 111 205
104 225 -9 21 -24 19 -38 -6z"/>
<path d="M5360 5045 c0 -8 5 -15 10 -15 6 0 10 7 10 15 0 8 -4 15 -10 15 -5 0
-10 -7 -10 -15z"/>
<path d="M5608 5044 c-5 -4 -8 -19 -8 -33 1 -23 2 -24 11 -8 11 19 9 53 -3 41z"/>
<path d="M8255 5004 c-4 -22 -2 -41 4 -47 6 -6 11 -21 11 -33 0 -17 7 -23 28
-26 26 -3 27 -5 24 -58 -1 -30 -5 -74 -8 -98 -5 -41 -4 -43 18 -40 21 3 24 -3
35 -52 18 -88 16 -134 -9 -165 -20 -26 -21 -29 -5 -78 9 -29 21 -79 26 -111 6
-33 13 -61 15 -63 2 -3 9 20 16 51 6 31 15 58 20 61 6 3 5 15 0 28 -19 45 -50
308 -50 426 0 86 -4 132 -15 158 -8 19 -15 43 -15 53 0 20 -19 30 -60 30 -24
0 -29 -5 -35 -36z"/>
<path d="M5387 4990 c-5 -13 -28 -306 -57 -715 -11 -150 -99 -918 -146 -1265
-35 -261 -35 -244 2 -248 25 -2 33 1 37 18 4 16 11 20 25 16 15 -5 27 3 51 32
27 34 29 41 17 57 -13 18 -15 18 -41 1 -35 -23 -58 -7 -31 23 14 15 15 24 7
40 -25 46 -4 115 24 78 16 -23 27 -21 54 7 22 23 22 25 6 50 -18 27 -39 34
-50 16 -3 -5 -13 -10 -22 -10 -11 0 -13 6 -8 23 4 12 6 57 5 99 -1 67 1 79 21
99 21 21 21 23 4 51 -22 38 -13 111 16 131 17 13 18 16 4 27 -10 8 -15 30 -15
62 0 40 5 53 27 74 l26 24 -21 23 c-33 35 -29 79 10 112 l31 26 -26 25 c-34
31 -34 67 -2 100 l25 25 -19 35 c-21 39 -18 64 9 89 18 16 18 18 0 47 -20 33
-17 51 12 84 17 19 17 22 3 34 -21 17 -20 76 2 89 15 8 15 13 5 36 -16 34 -15
72 1 78 9 3 9 11 0 37 -10 28 -10 39 2 62 11 22 11 35 3 53 -8 19 -7 29 4 47
11 17 13 29 5 46 -7 15 -7 30 0 45 6 13 9 35 6 50 -3 15 0 34 7 41 8 11 9 20
0 35 -7 15 -8 27 0 40 6 12 7 28 1 43 -7 17 -10 19 -14 8z"/>
<path d="M1160 4815 c0 -9 241 -367 245 -363 11 10 85 224 81 234 -6 16 -171
99 -235 118 -55 16 -91 20 -91 11z"/>
<path d="M2419 4782 l-40 -37 144 -138 c80 -75 148 -137 151 -137 8 0 -31 78
-92 185 -60 106 -101 165 -113 165 -5 0 -28 -17 -50 -38z"/>
<path d="M1556 4662 c-7 -11 712 -597 732 -597 9 0 22 11 28 23 6 13 16 28 21
33 9 9 155 -21 202 -41 l23 -11 -28 48 c-74 128 -127 175 -392 355 -192 129
-263 165 -369 183 -87 16 -209 19 -217 7z"/>
<path d="M730 4618 c0 -6 98 -109 217 -230 192 -193 221 -218 249 -218 21 0
36 7 45 21 12 18 19 20 49 12 47 -12 41 -26 -17 -38 -51 -11 -113 -40 -113
-53 0 -5 46 -14 103 -20 118 -14 167 -15 167 -4 0 17 -51 81 -71 87 l-21 7 21
15 c17 11 21 25 21 71 l0 57 -104 116 -104 115 -118 27 c-190 44 -324 58 -324
35z"/>
<path d="M3116 4600 c-58 -21 -131 -64 -154 -93 -10 -11 7 -30 91 -103 136
-118 349 -327 383 -375 14 -21 30 -36 35 -33 14 9 10 389 -5 475 -24 132 -36
141 -186 146 -87 3 -115 0 -164 -17z"/>
<path d="M1507 4543 c-14 -27 -31 -70 -40 -98 -17 -51 -49 -236 -43 -242 9 -9
38 13 52 38 8 16 48 69 89 119 77 92 89 124 65 170 -10 19 -70 60 -89 60 -6 0
-21 -21 -34 -47z"/>
<path d="M5487 4480 c-4 -41 -14 -187 -22 -325 -19 -295 -92 -1269 -101 -1337
l-6 -48 96 0 c53 0 96 3 96 8 0 4 -4 34 -10 67 -21 138 -33 448 -39 1060 -4
373 -9 618 -14 575z"/>
<path d="M760 4513 c0 -18 51 -177 60 -186 7 -8 56 -30 199 -94 l34 -15 -51
59 c-78 89 -242 249 -242 236z"/>
<path d="M5606 4320 c7 -254 32 -1113 40 -1348 7 -191 7 -194 31 -203 12 -4
36 -6 53 -3 28 6 29 9 25 43 -3 20 -37 403 -75 851 -39 448 -72 822 -75 830
-2 8 -2 -68 1 -170z"/>
<path d="M8706 4473 c-8 -36 -20 -47 -56 -56 -18 -5 -32 0 -52 20 -31 29 -34
27 -16 -11 18 -42 -11 -66 -81 -67 -54 -1 -55 -1 -21 -11 19 -5 39 -14 44 -18
14 -13 -13 -40 -39 -40 -19 0 -24 -7 -29 -41 -8 -52 -22 -79 -81 -157 -26 -35
-45 -66 -42 -69 12 -11 57 8 91 37 46 41 69 101 61 161 -8 58 8 72 33 30 16
-26 20 -28 33 -16 8 7 34 21 59 29 42 14 46 14 77 -5 27 -17 33 -27 33 -54 0
-19 -5 -46 -12 -60 -8 -19 -9 -28 0 -37 6 -6 8 -24 5 -39 -5 -24 -2 -29 15
-29 23 0 51 36 72 90 7 19 20 43 28 52 8 10 11 25 7 38 -9 30 11 50 54 51 l36
1 -40 12 c-53 17 -56 40 -9 64 l37 19 -43 -1 c-54 -1 -74 22 -46 53 22 25 10
28 -22 5 -34 -23 -75 0 -82 46 l-6 35 -8 -32z"/>
<path d="M780 4250 c-19 -17 -46 -33 -60 -36 -90 -20 -102 -26 -91 -37 15 -15
401 -23 401 -8 0 20 -32 40 -112 71 -46 18 -88 34 -93 36 -6 3 -26 -9 -45 -26z"/>
<path d="M4192 4270 c-100 -11 -187 -34 -225 -62 -34 -23 -42 -22 -160 27
-154 64 -150 49 31 -124 161 -153 162 -153 187 -137 17 11 47 16 99 16 l75 0
37 -45 c24 -29 44 -45 59 -45 20 0 25 9 38 69 31 136 59 293 53 298 -10 11
-107 12 -194 3z"/>
<path d="M1568 4224 c-49 -24 -88 -47 -88 -49 0 -13 34 -57 51 -66 13 -7 78
-5 202 6 218 18 262 24 250 36 -16 16 -152 67 -210 79 -32 7 -70 19 -85 26
-15 8 -28 14 -30 13 -2 0 -42 -20 -90 -45z"/>
<path d="M8256 4223 c-23 -51 -46 -141 -46 -179 0 -40 27 -67 32 -32 2 16 13
25 37 32 32 9 33 11 27 50 -4 23 -9 69 -13 104 -3 34 -9 62 -13 62 -4 0 -15
-17 -24 -37z"/>
<path d="M1090 4161 c0 -12 6 -21 15 -21 8 0 15 4 15 9 0 5 -7 14 -15 21 -13
10 -15 9 -15 -9z"/>
<path d="M8805 4081 c-28 -56 -11 -151 28 -151 16 0 17 5 10 33 -4 17 -7 55
-5 84 3 61 -11 76 -33 34z"/>
<path d="M645 4062 c10 -11 131 -36 223 -47 42 -5 53 -3 50 7 -3 7 -23 14 -49
16 -48 3 -169 19 -209 29 -17 4 -22 2 -15 -5z"/>
<path d="M8546 4013 c-4 -32 -12 -89 -20 -126 l-13 -68 26 25 c15 14 50 31 80
38 29 6 55 18 58 25 3 8 -11 31 -32 51 -21 20 -49 54 -63 75 -13 20 -26 37
-28 37 -1 0 -5 -26 -8 -57z"/>
<path d="M3052 4023 c-26 -37 -62 -109 -62 -124 0 -12 113 -8 295 12 138 15
155 18 155 35 0 19 -49 96 -58 92 -4 -2 -33 -16 -64 -32 l-57 -29 -80 36 c-44
20 -87 37 -95 37 -8 0 -23 -12 -34 -27z"/>
<path d="M8427 3981 c-20 -33 -22 -45 -6 -36 11 7 32 55 26 61 -2 2 -11 -10
-20 -25z"/>
<path d="M1182 3958 c3 -7 20 -16 39 -19 42 -9 324 -35 524 -49 83 -5 174 -12
203 -15 29 -3 52 -1 52 4 0 11 -26 15 -215 31 -71 7 -224 23 -340 36 -243 28
-268 29 -263 12z"/>
<path d="M8308 3949 c-38 -19 -58 -45 -58 -73 0 -29 27 -16 68 33 58 68 56 75
-10 40z"/>
<path d="M5350 3910 c0 -11 5 -20 10 -20 6 0 10 9 10 20 0 11 -4 20 -10 20 -5
0 -10 -9 -10 -20z"/>
<path d="M562 3888 c-20 -24 -31 -28 -70 -27 -70 1 -85 -1 -98 -12 -7 -6 -19
-9 -26 -7 -19 4 -88 -34 -88 -48 0 -12 41 -18 305 -39 204 -17 329 -19 320 -5
-3 6 -20 10 -36 10 -21 0 -39 10 -59 31 -23 26 -34 31 -58 26 -22 -4 -34 -1
-47 13 -12 13 -25 17 -45 14 -24 -5 -31 -1 -51 33 l-24 40 -23 -29z"/>
<path d="M8403 3828 c-32 -40 -67 -83 -79 -95 -12 -12 -25 -36 -29 -53 l-7
-32 29 16 c26 13 103 89 103 101 0 2 11 34 25 70 13 36 22 65 20 65 -2 0 -30
-33 -62 -72z"/>
<path d="M1104 3858 c-14 -22 143 -44 546 -77 296 -24 338 -27 345 -19 3 3
-47 8 -112 12 -120 8 -415 41 -646 74 -70 10 -130 15 -133 10z"/>
<path d="M3845 3821 c-3 -5 -1 -13 5 -16 15 -9 330 6 330 16 0 12 -327 11
-335 0z"/>
<path d="M3025 3810 c-190 -8 -426 -28 -435 -37 -3 -3 47 -3 110 0 63 2 250
10 415 17 324 12 453 28 225 27 -74 0 -216 -3 -315 -7z"/>
<path d="M3638 3793 c-14 -3 -18 -16 -19 -54 -1 -27 -2 -55 -3 -61 -1 -9 15
-13 49 -13 47 0 50 2 53 27 4 30 -35 109 -52 107 -6 -1 -19 -3 -28 -6z"/>
<path d="M4418 3773 c-34 -4 -38 -7 -38 -33 l0 -28 115 -7 c63 -4 121 -5 130
-1 9 3 15 18 15 41 l0 35 -92 -2 c-51 -1 -110 -3 -130 -5z"/>
<path d="M5343 3764 c-3 -8 -1 -20 4 -25 7 -7 12 -2 15 15 6 28 -9 36 -19 10z"/>
<path d="M8650 3734 c-25 -25 -66 -62 -92 -82 -66 -50 -136 -139 -203 -259
-60 -108 -77 -172 -55 -212 8 -16 19 -21 38 -19 26 3 27 8 58 150 33 150 46
188 66 188 7 0 9 -18 5 -56 -3 -31 -2 -53 2 -48 12 13 182 279 215 337 16 26
24 47 19 47 -5 0 -29 -21 -53 -46z"/>
<path d="M8910 3770 c0 -8 9 -44 20 -78 11 -35 20 -90 20 -123 0 -60 6 -69 28
-47 10 10 17 10 33 0 12 -8 23 -12 25 -10 7 7 -25 111 -50 162 -30 61 -75 118
-76 96z"/>
<path d="M8482 3741 c-16 -46 -15 -59 4 -39 9 9 14 27 12 44 l-3 29 -13 -34z"/>
<path d="M8740 3553 c-51 -120 -112 -277 -135 -349 -25 -74 -72 -188 -111
-265 l-69 -134 -1 -110 c-1 -104 -2 -113 -32 -165 -34 -60 -43 -116 -17 -106
46 17 116 75 146 120 19 28 59 101 90 163 44 87 60 132 74 205 9 51 33 145 52
208 61 201 95 359 99 460 3 52 6 116 8 143 2 26 0 47 -4 47 -4 0 -49 -98 -100
-217z"/>
<path d="M3800 3700 c0 -29 4 -40 15 -40 16 0 19 20 9 58 -10 36 -24 25 -24
-18z"/>
<path d="M0 3690 c0 -33 4 -42 28 -54 84 -43 525 -93 1152 -131 140 -8 295
-17 343 -21 l88 -6 -3 39 -3 38 -145 11 c-80 7 -235 17 -345 23 -110 7 -234
16 -275 21 -41 6 -145 14 -230 19 -118 8 -208 21 -375 55 -121 25 -223 46
-227 46 -5 0 -8 -18 -8 -40z"/>
<path d="M1000 3720 c-8 -5 -12 -11 -10 -14 3 -2 79 -18 170 -35 310 -57 593
-91 758 -91 75 0 82 2 82 20 0 13 -7 20 -19 20 -33 0 -492 40 -641 55 -145 16
-304 40 -318 49 -4 3 -14 1 -22 -4z"/>
<path d="M3097 3723 c-4 -3 -7 -28 -7 -55 0 -36 4 -48 15 -48 12 0 15 13 15
55 0 51 -7 65 -23 48z"/>
<path d="M8352 3634 c-37 -29 -39 -40 -13 -73 l19 -24 16 57 c10 32 16 60 14
62 -2 1 -18 -8 -36 -22z"/>
<path d="M9173 3582 c-21 -20 -52 -60 -70 -87 -27 -43 -32 -60 -34 -125 -1
-54 3 -84 14 -105 9 -16 24 -62 33 -102 15 -67 32 -92 54 -78 4 3 20 26 36 53
15 26 67 88 116 139 48 51 88 100 88 109 0 9 -9 31 -20 49 -17 28 -18 34 -5
51 32 43 21 58 -75 97 -49 20 -92 37 -95 37 -3 0 -22 -17 -42 -38z"/>
<path d="M4195 3600 c-99 -4 -319 -13 -490 -19 -170 -6 -354 -14 -407 -17
l-98 -6 0 -40 0 -40 113 6 c61 4 243 11 402 16 494 17 910 32 912 33 0 1 4 19
8 40 l7 37 -133 -2 c-74 0 -215 -4 -314 -8z"/>
<path d="M5321 3594 c-1 -29 26 -51 41 -36 9 9 8 12 -3 12 -9 0 -21 10 -27 23
-11 22 -11 22 -11 1z"/>
<path d="M2525 3523 c-136 -16 -598 -23 -717 -10 l-78 9 0 -40 c0 -29 5 -42
18 -47 36 -15 315 -17 616 -6 171 7 319 15 329 17 13 4 17 16 17 50 0 52 10
50 -185 27z"/>
<path d="M2900 3391 c0 -69 -6 -78 -55 -89 l-40 -9 40 -6 c50 -9 703 -84 806
-93 62 -5 82 -3 110 11 31 16 32 19 14 26 -11 4 -42 8 -68 8 -27 1 -58 6 -70
13 -12 6 -87 15 -166 19 -136 7 -146 9 -162 31 -15 19 -32 25 -101 33 -66 8
-85 14 -93 30 -8 17 -20 20 -75 20 -64 0 -65 0 -70 30 -4 26 -10 30 -37 31
l-33 2 0 -57z m177 -107 c-9 -9 -28 6 -21 18 4 6 10 6 17 -1 6 -6 8 -13 4 -17z
m53 6 c0 -5 -4 -10 -10 -10 -5 0 -10 5 -10 10 0 6 5 10 10 10 6 0 10 -4 10
-10z m50 -11 c0 -5 -4 -9 -10 -9 -5 0 -10 7 -10 16 0 8 5 12 10 9 6 -3 10 -10
10 -16z m48 0 c-2 -6 -8 -10 -13 -10 -5 0 -11 4 -13 10 -2 6 4 11 13 11 9 0
15 -5 13 -11z"/>
<path d="M5310 3412 c0 -21 25 -48 33 -35 3 4 -3 19 -14 32 -18 22 -19 22 -19
3z"/>
<path d="M8498 3243 c-134 -211 -162 -264 -162 -308 -1 -36 2 -40 23 -40 21 0
33 22 123 229 54 126 97 231 94 233 -2 2 -37 -49 -78 -114z"/>
<path d="M9000 3340 c0 -10 -15 -36 -32 -56 l-33 -37 -5 -416 c-3 -229 -2
-419 1 -424 5 -7 177 90 213 122 25 22 20 69 -53 441 -32 168 -62 324 -66 348
-7 42 -25 59 -25 22z"/>
<path d="M2767 3229 c-14 -16 -16 -23 -7 -35 18 -21 4 -44 -27 -44 -37 0 -56
-13 -51 -36 3 -20 5 -20 191 -38 l67 -7 0 36 c0 29 3 36 18 33 12 -2 17 -13
17 -38 l1 -35 174 -17 c96 -9 205 -19 243 -23 64 -6 67 -5 67 16 0 17 -3 19
-14 10 -10 -9 -16 -9 -21 -1 -4 6 -15 8 -24 5 -20 -6 -46 18 -37 34 7 11 64
10 82 -2 7 -4 14 0 18 8 11 29 36 4 36 -36 0 -47 -6 -45 186 -59 175 -13 204
-13 204 0 0 6 -12 10 -27 10 -48 0 -73 11 -73 31 0 23 -25 25 -34 3 -9 -23
-27 -6 -25 24 5 62 0 82 -21 82 -11 0 -20 -7 -20 -15 0 -8 -7 -15 -15 -15 -8
0 -15 9 -15 20 0 25 -9 26 -25 3 -11 -15 -15 -15 -29 -4 -11 9 -16 10 -16 2 0
-22 -30 -11 -31 12 l0 22 -9 -22 c-12 -29 -28 -29 -39 -1 l-8 22 -5 -22 c-7
-25 -38 -30 -38 -7 0 11 -10 14 -44 10 -38 -4 -46 -1 -51 16 -7 20 -7 20 -22
2 -11 -13 -16 -15 -20 -5 -4 10 -8 10 -19 1 -10 -8 -18 -8 -27 0 -10 8 -17 7
-25 -1 -9 -9 -15 -9 -23 -1 -13 13 -49 5 -49 -11 0 -8 -3 -8 -8 0 -4 6 -15 13
-24 17 -10 3 -18 14 -18 24 0 15 -1 15 -13 -2 -16 -20 -37 -13 -38 13 0 12 -3
11 -9 -5 -9 -22 -30 -32 -30 -14 0 14 -49 8 -55 -6 -6 -18 -32 -16 -39 3 -5
13 -9 14 -21 4 -16 -13 -18 -10 -28 35 -3 14 -5 12 -6 -8 -1 -37 -36 -34 -36
3 0 21 -5 25 -35 27 -24 1 -41 -4 -53 -18z m120 -75 c4 -10 9 -11 18 -4 14 12
25 3 25 -21 0 -23 -20 -35 -30 -18 -7 10 -11 10 -24 0 -13 -11 -17 -10 -22 4
-5 12 -9 13 -14 5 -11 -18 -30 -2 -30 25 0 20 5 23 36 23 21 0 38 -6 41 -14z
m178 -49 c0 -11 -8 -21 -17 -23 -14 -3 -18 3 -18 23 0 20 4 26 18 23 9 -2 17
-12 17 -23z m50 -1 c0 -10 -8 -20 -17 -22 -18 -3 -26 27 -11 42 12 11 28 0 28
-20z m49 19 c4 -4 15 -8 24 -8 10 0 18 -9 20 -22 3 -23 -21 -33 -32 -14 -3 5
-15 7 -26 4 -15 -4 -20 0 -20 14 0 29 17 42 34 26z m-149 -33 c-5 -8 -11 -8
-17 -2 -6 6 -7 16 -3 22 5 8 11 8 17 2 6 -6 7 -16 3 -22z m240 0 c0 -13 -6
-25 -12 -27 -16 -6 -27 21 -19 43 9 23 31 11 31 -16z m93 -8 c3 -18 -1 -21
-35 -19 -31 2 -39 7 -41 25 -3 21 0 22 35 19 29 -3 39 -9 41 -25z m192 -17 c0
-16 -6 -25 -15 -25 -9 0 -15 9 -15 25 0 16 6 25 15 25 9 0 15 -9 15 -25z m50
0 c0 -15 -6 -25 -14 -25 -16 0 -25 19 -18 38 8 22 32 13 32 -13z m45 -5 c0
-13 -6 -25 -12 -27 -16 -6 -27 21 -19 43 9 23 31 11 31 -16z m55 1 c0 -11 -5
-23 -11 -27 -15 -9 -33 12 -26 30 9 23 37 20 37 -3z"/>
<path d="M5300 3225 c0 -32 14 -39 34 -16 17 19 16 23 -16 34 -14 5 -18 1 -18
-18z"/>
<path d="M3862 3087 c-30 -32 -27 -47 8 -47 18 0 33 -6 37 -15 3 -9 18 -22 33
-30 25 -13 29 -12 49 9 25 26 27 53 5 84 -22 32 -102 31 -132 -1z"/>
<path d="M2791 3036 c14 -15 402 -54 894 -90 176 -13 206 -13 194 -2 -3 3
-223 23 -489 45 -267 23 -512 43 -545 47 -33 3 -57 4 -54 0z"/>
<path d="M3920 2954 c0 -8 5 -12 10 -9 6 4 8 11 5 16 -9 14 -15 11 -15 -7z"/>
<path d="M8826 2758 c-20 -51 -42 -129 -50 -174 -14 -82 -37 -137 -88 -212
-16 -23 -58 -101 -93 -174 -102 -210 -105 -233 -14 -123 53 65 107 99 230 148
31 13 37 21 42 53 9 54 21 574 14 574 -3 0 -22 -42 -41 -92z"/>
<path d="M5063 2694 c-13 -3 -23 -12 -23 -20 0 -18 10 -18 36 0 18 13 76 14
390 7 203 -5 379 -12 392 -16 13 -4 22 -3 22 3 0 5 -10 13 -22 17 -26 8 -761
16 -795 9z"/>
<path d="M8655 2606 c-49 -51 -137 -128 -194 -171 -81 -61 -107 -86 -122 -120
-24 -54 -45 -248 -31 -280 8 -16 7 -30 -4 -50 -11 -22 -12 -35 -2 -66 6 -22
15 -39 20 -39 38 0 138 73 138 101 0 5 29 91 65 191 45 125 78 201 106 241 39
57 71 130 102 235 9 28 15 52 14 51 -1 0 -42 -42 -92 -93z"/>
<path d="M5107 2608 c2 -5 131 -7 286 -6 155 0 269 3 252 4 -68 7 -543 8 -538
2z"/>
<path d="M5102 2557 c-5 -6 -24 -57 -42 -112 -18 -55 -86 -250 -152 -433 -66
-184 -117 -336 -113 -340 3 -3 29 -6 58 -7 l52 0 12 47 c6 26 21 61 33 78 16
22 20 41 18 77 -3 42 -1 48 17 48 11 0 21 8 23 18 2 9 -1 17 -7 17 -19 0 -12
28 9 33 11 3 20 10 20 16 0 6 -9 11 -20 11 -26 0 -25 18 1 47 18 18 20 25 9
38 -17 21 -5 49 20 42 27 -7 35 10 11 23 -27 14 -18 78 15 103 22 17 23 20 8
42 -12 19 -13 31 -3 71 15 63 26 84 44 84 8 0 15 5 15 10 0 6 -7 10 -15 10
-17 0 -20 23 -5 50 6 11 17 17 25 14 22 -9 18 3 -4 15 -13 8 -22 7 -29 -2z"/>
<path d="M5380 2540 c0 -5 5 -10 10 -10 6 0 10 5 10 10 0 6 -4 10 -10 10 -5 0
-10 -4 -10 -10z"/>
<path d="M5769 2545 c-7 -6 11 -75 31 -120 7 -16 68 -196 135 -400 107 -326
124 -370 141 -367 10 2 20 5 21 6 1 1 -42 143 -97 316 -54 173 -116 371 -137
440 -35 114 -41 125 -64 128 -14 2 -27 0 -30 -3z"/>
<path d="M5425 2511 c-3 -5 -1 -12 5 -16 5 -3 10 1 10 9 0 18 -6 21 -15 7z"/>
<path d="M5370 2470 c0 -5 5 -10 10 -10 6 0 10 5 10 10 0 6 -4 10 -10 10 -5 0
-10 -4 -10 -10z"/>
<path d="M5250 2346 c0 -8 -16 -27 -35 -42 l-35 -26 21 -26 c33 -42 9 -124
-47 -160 l-36 -24 27 -28 c28 -29 28 -30 14 -82 -12 -44 -21 -57 -57 -81 l-43
-29 30 -33 c29 -34 29 -34 15 -87 -7 -29 -14 -56 -14 -60 0 -16 29 -7 34 10 8
28 146 661 146 672 0 5 -4 10 -10 10 -5 0 -10 -7 -10 -14z"/>
<path d="M5715 2340 c3 -5 8 -10 11 -10 2 0 4 5 4 10 0 6 -5 10 -11 10 -5 0
-7 -4 -4 -10z"/>
<path d="M5630 2335 c0 -5 140 -567 161 -647 9 -36 12 -38 49 -38 46 0 54 9
39 47 -6 15 -11 41 -11 56 0 15 -10 43 -22 62 -32 46 -52 123 -37 138 19 19
12 37 -14 37 -19 0 -25 5 -25 23 0 13 5 28 11 34 7 7 2 16 -18 31 -17 12 -34
37 -41 60 -16 51 -15 52 7 52 20 0 37 17 28 26 -3 3 -15 0 -27 -6 -36 -19 -49
3 -22 40 l22 29 -28 15 c-16 8 -34 22 -41 30 -13 15 -31 22 -31 11z"/>
<path d="M9015 2270 c-10 -16 -44 -322 -45 -401 0 -41 -5 -72 -14 -85 -14 -18
-16 -18 -53 18 l-37 38 37 191 c21 105 36 193 33 196 -3 3 -28 -10 -56 -28
l-52 -34 3 -142 c4 -138 3 -142 -20 -167 -14 -14 -33 -26 -44 -26 -22 0 -21
-17 -1 194 8 83 -1 82 -42 -4 -15 -33 -31 -60 -35 -60 -21 0 -29 32 -23 82 6
47 6 52 -8 40 -9 -7 -19 -29 -23 -50 -13 -71 -55 -190 -69 -195 -22 -9 -26 2
-26 65 0 56 -1 58 -20 48 -18 -9 -20 -21 -20 -93 0 -53 -5 -88 -12 -96 -11
-10 51 -12 329 -9 188 1 344 5 346 8 6 6 -21 381 -28 388 -2 3 -16 -3 -29 -12
-38 -24 -42 -21 -42 33 0 51 -35 124 -49 101z"/>
<path d="M5145 2220 c-9 -15 -1 -23 21 -18 15 3 16 4 1 16 -11 9 -17 10 -22 2z"/>
<path d="M5077 2213 c-4 -3 -7 -11 -7 -17 0 -6 5 -5 12 2 6 6 9 14 7 17 -3 3
-9 2 -12 -2z"/>
<path d="M5440 2150 c-46 -6 -37 -7 53 -8 66 -1 107 2 107 8 0 11 -72 11 -160
0z"/>
<path d="M5071 1969 c-15 -50 -10 -57 24 -35 33 21 41 42 25 61 -21 25 -36 17
-49 -26z"/>
<path d="M5228 1847 c-19 -89 -33 -164 -31 -166 8 -10 25 19 34 55 13 56 41
265 36 270 -2 2 -19 -69 -39 -159z"/>
<path d="M5640 1971 c0 -43 41 -286 50 -295 13 -13 43 2 37 18 -3 7 -22 75
-42 152 -38 144 -45 163 -45 125z"/>
<path d="M8431 1835 c-15 -35 -33 -61 -50 -70 -26 -14 -25 -14 24 -15 48 0 50
1 51 28 1 15 5 46 9 70 11 59 -7 53 -34 -13z"/>
<path d="M5012 1770 c-28 -76 -24 -85 23 -54 30 19 30 22 5 54 l-19 25 -9 -25z"/>
<path d="M5932 1769 c2 -7 10 -15 17 -17 8 -3 12 1 9 9 -2 7 -10 15 -17 17 -8
3 -12 -1 -9 -9z"/>
<path d="M8257 1693 c-4 -3 -7 -24 -7 -46 l0 -40 362 6 c199 4 419 7 490 7
l128 0 0 24 c0 60 31 56 -489 56 -263 0 -481 -3 -484 -7z"/>
<path d="M4620 1624 c1 -35 0 -35 827 -32 446 2 815 6 819 11 4 4 5 9 2 12
-10 10 -1648 19 -1648 9z"/>
<path d="M8150 1436 l0 -83 31 -7 c40 -8 1057 -8 1087 0 21 6 22 12 22 90 l0
84 -570 0 -570 0 0 -84z"/>
<path d="M4607 1412 c3 -37 7 -68 8 -70 14 -17 1494 -31 1607 -16 l45 6 6 67
c3 36 4 67 4 67 -1 1 -379 4 -839 7 l-837 6 6 -67z"/>
<path d="M4365 974 c-116 -169 -211 -313 -213 -320 -2 -7 6 -17 17 -23 18 -10
32 8 156 202 76 116 154 235 175 262 62 82 108 185 82 185 -4 0 -102 -138
-217 -306z"/>
<path d="M8103 1273 c-9 -3 -13 -32 -13 -94 l0 -89 670 0 670 0 0 95 0 95
-657 -1 c-362 0 -664 -3 -670 -6z"/>
<path d="M6330 1217 c0 -4 56 -120 125 -257 69 -137 125 -254 125 -258 0 -5
-26 -29 -57 -54 -32 -25 -71 -64 -88 -87 -16 -22 -35 -41 -42 -41 -6 0 -51 52
-99 117 -206 274 -422 442 -649 504 -108 29 -267 29 -380 0 -105 -27 -262
-105 -366 -182 -86 -63 -268 -239 -329 -319 -33 -43 -31 -42 38 20 219 197
309 262 464 335 437 207 846 58 1179 -427 33 -49 58 -95 56 -102 -3 -7 -18
-17 -34 -21 -31 -8 -25 -14 -129 130 -75 105 -222 257 -297 309 -69 47 -169
82 -281 97 -271 35 -535 -65 -707 -269 -58 -69 -123 -180 -151 -259 -13 -36
-29 -63 -37 -63 -7 0 -29 14 -49 31 -20 17 -52 38 -71 46 -20 9 -47 20 -61 26
-14 5 -91 27 -172 47 -137 35 -150 40 -196 81 -89 80 -219 129 -409 151 l-102
12 -31 47 c-48 75 -132 104 -239 83 l-31 -6 0 -88 0 -88 60 5 c80 8 156 -28
197 -91 l28 -43 97 -12 c184 -23 327 -76 415 -155 43 -39 60 -47 168 -74 208
-54 299 -91 367 -152 54 -47 98 -55 98 -17 0 12 -7 33 -16 46 -9 12 -18 49
-20 81 -4 51 0 65 32 126 101 190 202 288 388 374 137 64 181 73 335 68 158
-6 194 -17 373 -119 105 -61 107 -62 186 -173 81 -113 122 -184 122 -209 0 -8
-12 -36 -27 -62 -19 -35 -27 -66 -31 -119 -5 -89 12 -182 38 -196 28 -15 40
-12 40 9 0 40 35 123 68 161 39 46 109 85 181 101 43 9 53 16 86 65 85 123
195 194 302 194 l61 0 45 63 c51 71 95 108 164 139 38 17 61 20 130 16 81 -4
84 -4 79 16 -9 36 14 115 41 136 31 24 99 26 158 5 63 -23 65 -22 65 46 l0 60
-54 24 c-29 13 -86 33 -125 45 -59 18 -76 20 -106 10 -45 -15 -58 -40 -61
-115 -1 -57 -3 -60 -25 -57 -93 11 -166 6 -209 -17 -54 -27 -121 -91 -158
-148 -32 -51 -34 -52 -94 -44 l-46 6 -166 250 c-91 138 -166 247 -166 242z"/>
<path d="M4833 1180 c-20 -18 -49 -31 -80 -36 l-48 -8 50 -7 c28 -3 55 -4 60
-2 11 4 58 73 53 78 -2 2 -17 -9 -35 -25z"/>
<path d="M4956 1152 c-7 -11 13 -52 26 -52 17 0 16 20 0 41 -13 15 -21 18 -26
11z"/>
<path d="M5040 1135 c0 -9 6 -12 15 -9 8 4 12 10 9 15 -8 14 -24 10 -24 -6z"/>
<path d="M5816 1143 c-3 -3 -6 -10 -6 -14 0 -9 150 -92 156 -86 5 5 -88 77
-122 95 -12 6 -24 8 -28 5z"/>
<path d="M4880 1117 c0 -17 38 -52 47 -44 10 11 -15 57 -32 57 -8 0 -15 -6
-15 -13z"/>
<path d="M4640 1065 c-7 -9 -11 -18 -8 -21 8 -8 58 18 52 27 -8 14 -30 10 -44
-6z"/>
<path d="M4537 1054 c-8 -8 3 -34 14 -34 4 0 13 9 19 20 9 17 8 20 -8 20 -10
0 -21 -3 -25 -6z"/>
<path d="M4840 1050 c0 -5 4 -10 9 -10 6 0 13 5 16 10 3 6 -1 10 -9 10 -9 0
-16 -4 -16 -10z"/>
<path d="M4701 1016 c-23 -13 -23 -13 -2 -19 18 -4 51 14 51 29 0 8 -25 3 -49
-10z"/>
<path d="M8180 495 l0 -495 563 2 562 3 0 490 0 490 -562 3 -563 2 0 -495z
m438 288 l-3 -148 -68 -3 c-42 -2 -74 2 -83 9 -11 9 -14 41 -14 134 0 68 3
130 6 139 5 13 22 16 85 16 l80 0 -3 -147z m226 131 c10 -27 7 -244 -4 -265
-9 -16 -22 -19 -80 -19 -58 0 -71 3 -80 19 -11 21 -14 238 -4 265 9 23 159 23
168 0z m234 -131 l-3 -148 -68 -3 c-42 -2 -74 2 -83 9 -11 9 -14 41 -14 134 0
68 3 130 6 139 5 13 22 16 85 16 l80 0 -3 -147z"/>
<path d="M4626 928 c19 -33 27 -38 40 -27 24 20 16 39 -17 39 -21 0 -28 -4
-23 -12z"/>
<path d="M4540 891 c-15 -28 -13 -31 20 -31 33 0 36 6 16 33 -17 22 -23 22
-36 -2z"/>
<path d="M4444 886 c-10 -8 -15 -18 -11 -22 4 -4 15 0 24 9 22 21 12 31 -13
13z"/>
<path d="M4370 780 c0 -11 3 -20 8 -20 4 0 13 9 20 20 11 18 10 20 -8 20 -13
0 -20 -7 -20 -20z"/>
<path d="M4528 747 c-35 -13 -36 -27 -4 -27 21 0 56 22 56 36 0 7 -23 3 -52
-9z"/>
<path d="M4290 710 c-8 -15 -8 -20 3 -20 14 0 37 19 37 32 0 16 -30 7 -40 -12z"/>
<path d="M4450 651 c15 -28 29 -35 45 -21 27 22 17 40 -20 40 -32 0 -35 -2
-25 -19z"/>
<path d="M4333 638 c-34 -16 -28 -25 23 -33 54 -8 64 -2 39 25 -20 22 -30 24
-62 8z"/>
</g>
</svg>
